<svg width="23" height="26" viewBox="0 0 23 26" fill="none" xmlns="http://www.w3.org/2000/svg">
<path d="M11.7501 25.53C12.1617 25.5305 12.5694 25.4499 12.9499 25.2927C13.3303 25.1356 13.676 24.9049 13.9673 24.6141C14.2586 24.3232 14.4896 23.9777 14.6473 23.5975C14.8049 23.2172 14.8861 22.8096 14.8861 22.398H8.61906C8.61906 23.2285 8.9489 24.025 9.53605 24.6123C10.1232 25.1996 10.9196 25.5297 11.7501 25.53ZM22.2931 18.202C21.3471 17.186 19.5781 15.657 19.5781 10.65C19.5794 8.85362 18.955 7.11289 17.8123 5.72688C16.6695 4.34087 15.0797 3.39613 13.3161 3.05498V2.03498C13.3161 1.8294 13.2756 1.62583 13.1969 1.43589C13.1182 1.24596 13.0029 1.07338 12.8575 0.928007C12.7122 0.782637 12.5396 0.667323 12.3497 0.588649C12.1597 0.509975 11.9561 0.469482 11.7506 0.469482C11.545 0.469482 11.3414 0.509975 11.1515 0.588649C10.9615 0.667323 10.789 0.782637 10.6436 0.928007C10.4982 1.07338 10.3829 1.24596 10.3042 1.43589C10.2256 1.62583 10.1851 1.8294 10.1851 2.03498V3.05498C8.42139 3.39613 6.8316 4.34087 5.68885 5.72688C4.5461 7.11289 3.92174 8.85362 3.92306 10.65C3.92306 15.657 2.15406 17.186 1.20806 18.202C0.934214 18.4894 0.78288 18.872 0.78606 19.269C0.786322 19.475 0.827173 19.6789 0.906277 19.8691C0.985382 20.0593 1.10119 20.2321 1.24708 20.3775C1.39298 20.5229 1.5661 20.6382 1.75655 20.7167C1.94701 20.7952 2.15106 20.8354 2.35706 20.835H21.1431C21.3492 20.8356 21.5534 20.7956 21.744 20.7172C21.9347 20.6388 22.108 20.5236 22.254 20.3781C22.4 20.2327 22.5159 20.0598 22.595 19.8695C22.6741 19.6792 22.7149 19.4751 22.7151 19.269C22.7176 18.8735 22.5667 18.4925 22.2941 18.206L22.2931 18.202Z" fill="#767672"/>
</svg>
