<svg width="24" height="22" viewBox="0 0 24 22" fill="none" xmlns="http://www.w3.org/2000/svg">
<path d="M8.29497 20.2449C8.29497 20.506 8.21755 20.7612 8.07251 20.9783C7.92747 21.1954 7.72131 21.3645 7.48011 21.4645C7.23891 21.5644 6.9735 21.5905 6.71745 21.5396C6.46139 21.4886 6.22619 21.3629 6.04159 21.1783C5.85698 20.9937 5.73126 20.7585 5.68033 20.5024C5.6294 20.2464 5.65554 19.981 5.75545 19.7398C5.85536 19.4986 6.02454 19.2924 6.24162 19.1474C6.45869 19.0023 6.7139 18.9249 6.97497 18.9249C7.14831 18.9249 7.31996 18.9591 7.48011 19.0254C7.64026 19.0917 7.78578 19.189 7.90835 19.3116C8.03092 19.4341 8.12815 19.5796 8.19449 19.7398C8.26083 19.8999 8.29497 20.0716 8.29497 20.2449Z" fill="#767672"/>
<path d="M20.651 20.2449C20.651 20.506 20.5736 20.7612 20.4285 20.9783C20.2835 21.1954 20.0773 21.3645 19.8361 21.4645C19.5949 21.5644 19.3295 21.5905 19.0735 21.5396C18.8174 21.4886 18.5822 21.3629 18.3976 21.1783C18.213 20.9937 18.0873 20.7585 18.0364 20.5024C17.9854 20.2464 18.0116 19.981 18.1115 19.7398C18.2114 19.4986 18.3806 19.2924 18.5976 19.1474C18.8147 19.0023 19.0699 18.9249 19.331 18.9249C19.5043 18.9249 19.676 18.9591 19.8361 19.0254C19.9963 19.0917 20.1418 19.189 20.2644 19.3116C20.3869 19.4341 20.4842 19.5796 20.5505 19.7398C20.6168 19.8999 20.651 20.0716 20.651 20.2449Z" fill="#767672"/>
<path d="M23.693 4.19093C23.6745 4.12791 23.6372 4.07204 23.5861 4.03077C23.535 3.9895 23.4725 3.96479 23.407 3.95993L5.48699 2.22693C5.40292 2.21826 5.32196 2.1904 5.25035 2.14549C5.17875 2.10059 5.11841 2.03984 5.07399 1.96793C4.88868 1.60171 4.66366 1.25697 4.40299 0.93993C3.97899 0.42293 3.18199 0.43993 1.71799 0.42793C1.60685 0.4139 1.494 0.423368 1.38675 0.455723C1.2795 0.488077 1.18024 0.542595 1.09539 0.615749C1.01055 0.688902 0.942017 0.779059 0.894231 0.880381C0.846445 0.981703 0.820472 1.09193 0.817993 1.20393C0.818919 1.31265 0.842392 1.42 0.886928 1.51919C0.931464 1.61838 0.996095 1.70725 1.07673 1.78018C1.15737 1.85311 1.25227 1.90852 1.35541 1.9429C1.45856 1.97729 1.56772 1.98989 1.67599 1.97993C2.15512 1.96627 2.63443 1.99976 3.10699 2.07993C3.36599 2.15693 3.57499 2.57993 3.65199 2.94893C3.65159 2.95204 3.65193 2.95519 3.65297 2.95814C3.65401 2.9611 3.65573 2.96376 3.65799 2.96593C3.66899 3.03193 3.76799 3.52693 3.76799 3.53293L5.96799 15.1749C6.06564 15.8864 6.34075 16.5618 6.76799 17.1389C6.97675 17.421 7.24997 17.6491 7.56484 17.8041C7.87971 17.9591 8.2271 18.0366 8.57799 18.0299H21.597C21.7985 18.0328 21.9934 17.9578 22.141 17.8205C22.2886 17.6832 22.3774 17.4942 22.389 17.2929C22.3935 17.1892 22.3768 17.0857 22.3401 16.9886C22.3034 16.8915 22.2473 16.8028 22.1753 16.728C22.1033 16.6532 22.0169 16.5938 21.9213 16.5534C21.8256 16.513 21.7228 16.4924 21.619 16.4929H8.56799C8.40139 16.5033 8.23737 16.448 8.11099 16.3389C7.75042 15.9432 7.52826 15.4409 7.47799 14.9079L7.23899 13.6099C7.23802 13.6027 7.23971 13.5954 7.24376 13.5893C7.24781 13.5832 7.25394 13.5788 7.26099 13.5769L22.539 10.9909C22.6093 10.98 22.674 10.9459 22.7229 10.8941C22.7718 10.8424 22.8021 10.7758 22.809 10.7049L23.689 4.33393C23.7013 4.28721 23.7027 4.23827 23.693 4.19093Z" fill="#767672"/>
</svg>
