<svg width="25" height="20" viewBox="0 0 25 20" fill="none" xmlns="http://www.w3.org/2000/svg">
<path d="M22.486 0.421021H3.32896C2.6956 0.423403 2.08904 0.67688 1.64232 1.12586C1.19559 1.57484 0.945161 2.18266 0.94596 2.81602L0.93396 17.184C0.935281 17.8188 1.18803 18.4272 1.6369 18.8761C2.08576 19.3249 2.69417 19.5777 3.32896 19.579H22.486C23.1207 19.5777 23.7292 19.3249 24.178 18.8761C24.6269 18.4272 24.8796 17.8188 24.881 17.184V2.81602C24.8796 2.18123 24.6269 1.57282 24.178 1.12396C23.7292 0.675095 23.1207 0.422342 22.486 0.421021ZM22.486 5.21002L12.907 11.197L3.32896 5.21002V2.81602L12.908 8.80302L22.487 2.81602L22.486 5.21002Z" fill="#767672"/>
</svg>
